Coordinates
version=1
nRows=31
nColumns=38
inDegrees=no

Units are S.I. units (second, meters, Newtons, ...)
If the header above contains a line with 'inDegrees', this indicates whether rotational values are in degrees (yes) or radians (no).

endheader
time	pelvis_tilt	pelvis_list	pelvis_rotation	pelvis_tx	pelvis_ty	pelvis_tz	hip_flexion_r	hip_adduction_r	hip_rotation_r	knee_angle_r	ankle_angle_r	subtalar_angle_r	mtp_angle_r	hip_flexion_l	hip_adduction_l	hip_rotation_l	knee_angle_l	ankle_angle_l	subtalar_angle_l	mtp_angle_l	lumbar_extension	lumbar_bending	lumbar_rotation	arm_flex_r	arm_add_r	arm_rot_r	elbow_flex_r	pro_sup_r	wrist_flex_r	wrist_dev_r	arm_flex_l	arm_add_l	arm_rot_l	elbow_flex_l	pro_sup_l	wrist_flex_l	wrist_dev_l
15	3.03309	1.355	-1.21364	0.584986	0.127659	0.82388	0.424842	-0.00993795	-0.124383	1.11063	0.414082	0	0	0.508255	-0.168356	-0.0237199	1.24169	0.42332	0	0	-0.960206	0.224091	0.059751	0.557296	-0.275748	0.409708	0.301334	1.2653	0	0	0.334172	-0.317994	0.591767	0.805797	1.05924	0	0
15.01	3.033	1.35587	-1.21352	0.585263	0.127666	0.824225	0.424936	-0.0100512	-0.124945	1.10896	0.41314	0	0	0.508187	-0.168561	-0.0241814	1.23971	0.422469	0	0	-0.959843	0.223948	0.0592904	0.554667	-0.27209	0.400182	0.304523	1.26387	0	0	0.333489	-0.318496	0.590487	0.805279	1.06033	0	0
15.02	3.03286	1.35675	-1.21336	0.585552	0.127733	0.824593	0.424861	-0.0101087	-0.125437	1.10713	0.412714	0	0	0.508028	-0.168894	-0.024792	1.23767	0.421499	0	0	-0.959378	0.223806	0.0590013	0.551737	-0.268226	0.389253	0.307626	1.25794	0	0	0.332684	-0.318939	0.588753	0.80542	1.06048	0	0
15.03	3.03225	1.35762	-1.21278	0.585835	0.127847	0.82497	0.424654	-0.010058	-0.125936	1.10509	0.412227	0	0	0.507822	-0.169482	-0.025516	1.23567	0.420691	0	0	-0.958773	0.223792	0.0588098	0.549033	-0.264285	0.379883	0.30983	1.24733	0	0	0.331621	-0.319314	0.586416	0.80611	1.05902	0	0
15.04	3.03154	1.35821	-1.21214	0.586086	0.127971	0.825362	0.423999	-0.00989388	-0.12655	1.1029	0.411639	0	0	0.50722	-0.170214	-0.0262253	1.23361	0.420006	0	0	-0.958252	0.223898	0.0587854	0.546315	-0.260265	0.370511	0.311319	1.22893	0	0	0.330732	-0.319746	0.585782	0.805693	1.0582	0	0
15.05	3.03091	1.35841	-1.21158	0.586276	0.128083	0.825753	0.422977	-0.00992299	-0.127459	1.10084	0.411026	0	0	0.506261	-0.170785	-0.0266806	1.23163	0.419283	0	0	-0.957612	0.224603	0.0578534	0.543182	-0.260946	0.404205	0.318214	1.12849	0	0	0.329025	-0.320452	0.58566	0.804426	1.0584	0	0
15.06	3.03001	1.35895	-1.21063	0.586471	0.128266	0.826113	0.422325	-0.0101255	-0.12851	1.09893	0.410589	0	0	0.505624	-0.171199	-0.0270277	1.22966	0.418664	0	0	-0.95664	0.225004	0.0578325	0.540042	-0.258157	0.40329	0.31975	1.08763	0	0	0.328101	-0.320865	0.586302	0.803918	1.05491	0	0
15.07	3.02957	1.35992	-1.21017	0.586668	0.128525	0.826446	0.422211	-0.0105506	-0.129483	1.0974	0.410139	0	0	0.505311	-0.171353	-0.0274722	1.2277	0.418156	0	0	-0.955386	0.224756	0.0589	0.537091	-0.250273	0.354295	0.3138	1.13178	0	0	0.328051	-0.320607	0.586475	0.804013	1.05412	0	0
15.08	3.02993	1.3599	-1.2107	0.586822	0.128736	0.826832	0.420982	-0.010714	-0.13029	1.0957	0.409803	0	0	0.503969	-0.171679	-0.0279249	1.2259	0.41744	0	0	-0.954522	0.225329	0.0580302	0.533389	-0.251671	0.391102	0.31995	1.0229	0	0	0.326066	-0.321299	0.585573	0.804672	1.04834	0	0
15.09	3.03054	1.36015	-1.21162	0.586991	0.129019	0.827175	0.420035	-0.010966	-0.130911	1.09411	0.409756	0	0	0.502838	-0.171976	-0.0285585	1.22422	0.416776	0	0	-0.953437	0.225257	0.0582593	0.530101	-0.248448	0.384316	0.318913	0.996658	0	0	0.325254	-0.321407	0.586697	0.802935	1.04896	0	0
15.1	3.03201	1.36036	-1.21351	0.587179	0.129337	0.827488	0.419055	-0.011375	-0.131333	1.09283	0.409565	0	0	0.501571	-0.172261	-0.0293793	1.22271	0.416396	0	0	-0.952255	0.224872	0.0586911	0.527085	-0.245506	0.377142	0.317173	0.976183	0	0	0.324886	-0.321664	0.589835	0.800422	1.05046	0	0
15.11	3.0335	1.36039	-1.21552	0.587348	0.129661	0.82778	0.418013	-0.0116789	-0.131668	1.09169	0.409216	0	0	0.500199	-0.172518	-0.0300984	1.2214	0.416229	0	0	-0.951071	0.224487	0.059133	0.52443	-0.242639	0.367639	0.31542	0.963117	0	0	0.324289	-0.321906	0.591905	0.799516	1.05001	0	0
15.12	3.03493	1.36019	-1.21758	0.587528	0.129973	0.82808	0.416866	-0.0117466	-0.131811	1.09061	0.408722	0	0	0.498584	-0.172977	-0.0309506	1.22016	0.416142	0	0	-0.950104	0.224079	0.0597537	0.52264	-0.240603	0.362224	0.313128	0.958233	0	0	0.323548	-0.32196	0.592485	0.799403	1.05011	0	0
15.13	3.03588	1.35975	-1.2192	0.587712	0.130295	0.828391	0.415422	-0.0116099	-0.132015	1.08946	0.408091	0	0	0.496725	-0.173603	-0.0317414	1.21888	0.416092	0	0	-0.949356	0.22361	0.0610077	0.521662	-0.237802	0.344083	0.308441	0.985478	0	0	0.323561	-0.321944	0.595428	0.797787	1.04967	0	0
15.14	3.03562	1.35931	-1.21943	0.587852	0.130654	0.828681	0.413889	-0.0113871	-0.132591	1.08818	0.407636	0	0	0.495017	-0.174277	-0.032168	1.21764	0.416043	0	0	-0.94843	0.223594	0.061834	0.521274	-0.237689	0.346467	0.305806	0.981868	0	0	0.322934	-0.321818	0.597022	0.796038	1.05101	0	0
15.15	3.03497	1.35874	-1.21928	0.588003	0.131062	0.828985	0.412095	-0.0109883	-0.133304	1.08676	0.407409	0	0	0.493126	-0.175206	-0.0326682	1.21639	0.416087	0	0	-0.947509	0.223625	0.0626113	0.521479	-0.237946	0.34927	0.302541	0.979228	0	0	0.322086	-0.321517	0.597596	0.794332	1.05213	0	0
15.16	3.03428	1.3582	-1.21904	0.58818	0.131501	0.829298	0.410374	-0.0105714	-0.134031	1.08541	0.407165	0	0	0.491273	-0.176256	-0.0332155	1.21521	0.416269	0	0	-0.946459	0.223559	0.0634024	0.521921	-0.238307	0.351805	0.29843	0.975381	0	0	0.321311	-0.321206	0.598114	0.79293	1.05268	0	0
15.17	3.03449	1.35785	-1.21975	0.58832	0.131958	0.829607	0.408895	-0.0105745	-0.134721	1.08434	0.406858	0	0	0.489471	-0.176926	-0.0338419	1.214	0.416416	0	0	-0.945162	0.22332	0.0639178	0.522318	-0.238813	0.355005	0.293887	0.969342	0	0	0.320391	-0.320805	0.598321	0.791654	1.05322	0	0
15.18	3.03552	1.35782	-1.22129	0.588444	0.132455	0.8299	0.407659	-0.0108065	-0.135248	1.08329	0.406468	0	0	0.487822	-0.177243	-0.0345583	1.21268	0.416433	0	0	-0.943453	0.222808	0.0641965	0.522433	-0.23965	0.360017	0.289257	0.961379	0	0	0.319412	-0.32023	0.59818	0.789921	1.05389	0	0
15.19	3.03747	1.35793	-1.22374	0.588565	0.132983	0.830193	0.406316	-0.0111984	-0.135589	1.08218	0.406301	0	0	0.486128	-0.177381	-0.035469	1.21126	0.416346	0	0	-0.941491	0.222016	0.0642148	0.522056	-0.240953	0.368448	0.285136	0.952013	0	0	0.318366	-0.319676	0.597934	0.788213	1.05438	0	0
15.2	3.03955	1.35761	-1.22631	0.588642	0.133464	0.830538	0.404589	-0.0115349	-0.135894	1.08098	0.405807	0	0	0.483935	-0.177564	-0.0363248	1.20974	0.416254	0	0	-0.939532	0.221715	0.0627498	0.520914	-0.246539	0.417215	0.287984	0.876953	0	0	0.315906	-0.319476	0.595438	0.787263	1.05332	0	0
15.21	3.04113	1.35766	-1.22809	0.588745	0.133994	0.83092	0.403022	-0.0118221	-0.136419	1.0794	0.40532	0	0	0.482034	-0.177736	-0.0370159	1.20794	0.41609	0	0	-0.937391	0.220877	0.0628602	0.519602	-0.24601	0.401504	0.283328	0.899445	0	0	0.315321	-0.318741	0.595041	0.785638	1.05143	0	0
15.22	3.0415	1.35768	-1.2284	0.588839	0.134506	0.831363	0.401335	-0.0118787	-0.137201	1.07751	0.404494	0	0	0.480246	-0.178066	-0.037408	1.20598	0.415842	0	0	-0.935101	0.220606	0.0624927	0.518065	-0.247934	0.407769	0.282139	0.88685	0	0	0.31425	-0.317971	0.59291	0.784397	1.05118	0	0
15.23	3.04123	1.35771	-1.22798	0.588908	0.135005	0.831877	0.399564	-0.0119135	-0.138233	1.07534	0.403556	0	0	0.47836	-0.178473	-0.0378025	1.2037	0.41552	0	0	-0.932916	0.220438	0.0624271	0.516734	-0.249098	0.404555	0.280223	0.887883	0	0	0.313591	-0.317119	0.592269	0.782206	1.05044	0	0
15.24	3.0414	1.35771	-1.22807	0.588975	0.135494	0.832455	0.397546	-0.012125	-0.139372	1.07284	0.402696	0	0	0.476136	-0.178868	-0.0384355	1.20097	0.415062	0	0	-0.930863	0.220132	0.0624554	0.515418	-0.250476	0.402977	0.278966	0.888111	0	0	0.313112	-0.316238	0.592084	0.779797	1.05067	0	0
15.25	3.04196	1.35767	-1.22865	0.589031	0.13597	0.833082	0.395277	-0.0124847	-0.140523	1.07001	0.401743	0	0	0.473645	-0.179232	-0.0392507	1.19793	0.414537	0	0	-0.928713	0.219841	0.0621994	0.514151	-0.251622	0.40135	0.278311	0.887934	0	0	0.312243	-0.315354	0.590228	0.778932	1.04949	0	0
15.26	3.04289	1.35781	-1.22972	0.589109	0.13645	0.83375	0.393026	-0.0126717	-0.141088	1.06678	0.400869	0	0	0.471152	-0.17952	-0.0402884	1.19469	0.413981	0	0	-0.926425	0.219405	0.061922	0.512952	-0.252439	0.399163	0.277732	0.887663	0	0	0.311373	-0.314567	0.588888	0.77792	1.04859	0	0
15.27	3.04426	1.35813	-1.23117	0.589182	0.136935	0.834453	0.390776	-0.0128876	-0.141559	1.06333	0.400022	0	0	0.468703	-0.179541	-0.0412953	1.19126	0.413239	0	0	-0.923942	0.218938	0.0614879	0.511987	-0.253031	0.397854	0.276986	0.88796	0	0	0.310517	-0.314032	0.588543	0.776492	1.04874	0	0
15.28	3.04598	1.35873	-1.23283	0.589244	0.137439	0.835186	0.388635	-0.0132686	-0.142086	1.05975	0.399078	0	0	0.466366	-0.179305	-0.0422842	1.1875	0.41233	0	0	-0.921188	0.218451	0.0609583	0.511223	-0.253524	0.396837	0.276188	0.887946	0	0	0.309468	-0.31364	0.587271	0.776574	1.04824	0	0
15.29	3.04789	1.3595	-1.23465	0.589271	0.137924	0.83597	0.386577	-0.0138772	-0.142644	1.05594	0.397929	0	0	0.464027	-0.178955	-0.0434603	1.18337	0.411208	0	0	-0.918299	0.217996	0.0604443	0.51055	-0.253847	0.396168	0.275006	0.887983	0	0	0.308572	-0.313218	0.586666	0.776452	1.04833	0	0
15.3	3.04986	1.36028	-1.23646	0.589297	0.138388	0.83682	0.38437	-0.014551	-0.143359	1.0518	0.396594	0	0	0.461545	-0.178735	-0.0448477	1.17897	0.41004	0	0	-0.915477	0.217587	0.0602694	0.509945	-0.25425	0.397107	0.273312	0.887904	0	0	0.308042	-0.312745	0.586139	0.776807	1.04791	0	0
